<svg width="40" height="40" viewBox="0 0 40 40" fill="none" xmlns="http://www.w3.org/2000/svg">
<path d="M0 8C0 3.58172 3.58172 0 8 0H32C36.4183 0 40 3.58172 40 8V32C40 36.4183 36.4183 40 32 40H8C3.58172 40 0 36.4183 0 32V8Z" fill="#E2EDE9"/>
<path d="M28.1543 12.9847C29.1802 11.0978 28.4979 8.72771 26.6305 7.6911C24.763 6.65449 22.4175 7.34387 21.3916 9.23086C20.3658 11.1178 21.048 13.4879 22.9154 14.5245C24.7829 15.5611 27.1284 14.8717 28.1543 12.9847Z" fill="#71C679"/>
<path d="M27.3949 13.9678C24.2539 13.7046 23.4072 10.2035 21.1147 9.87129C20.4476 11.8796 21.4916 14.0662 23.4745 14.7814C24.8758 15.2868 26.3739 14.9231 27.3949 13.9678Z" fill="#5BA560"/>
<path d="M23.4277 14.76C23.4283 14.0712 23.535 13.4206 23.6771 12.7828C23.8186 12.1446 24.0112 11.525 24.2333 10.9162C24.4557 10.3074 24.707 9.70881 24.9956 9.12383C25.2887 8.5405 25.6081 7.96661 26.0181 7.42536L26.1148 7.4603C26.093 8.14151 25.9807 8.7901 25.842 9.42907C25.6989 10.0666 25.5185 10.6905 25.309 11.3041C25.0994 11.9176 24.8604 12.5204 24.5699 13.1048C24.2803 13.6894 23.9553 14.2613 23.5242 14.7948L23.4277 14.76Z" fill="#46844B"/>
<path d="M24.4118 7.25394C24.1451 7.82385 23.8958 8.356 23.667 8.88864C23.4383 9.41963 23.2239 9.94433 23.0407 10.4806C22.8589 11.0164 22.6791 11.5557 22.5398 12.118C22.4516 12.3967 22.399 12.6831 22.3163 12.9734C22.2362 13.2644 22.1849 13.5614 22.0774 13.8698L21.9559 13.8776C21.8962 13.7283 21.8494 13.576 21.805 13.4216C21.7612 13.2672 21.715 13.1107 21.6966 12.953C21.6527 12.6375 21.6115 12.3154 21.6258 11.9946C21.6242 11.3495 21.7541 10.7074 21.9597 10.0955C22.1639 9.48174 22.4796 8.90802 22.871 8.39989C23.2657 7.89573 23.7379 7.44424 24.3298 7.16301L24.4118 7.25394Z" fill="#46844B"/>
<path d="M27.5864 8.33745C27.8683 8.93386 27.9509 9.58542 27.9406 10.2282C27.9252 10.872 27.8099 11.5181 27.5834 12.1238C27.3592 12.7288 27.0573 13.3091 26.6519 13.8073C26.4619 14.0649 26.2282 14.2878 25.9966 14.5039C25.8835 14.6144 25.7498 14.7058 25.6191 14.7973C25.488 14.8884 25.3562 14.9765 25.2166 15.0536L25.1274 14.9698C25.2374 14.6624 25.3837 14.3996 25.5041 14.1232C25.6221 13.8456 25.7607 13.5904 25.8671 13.3181C26.1115 12.7937 26.3103 12.2612 26.5054 11.7302C26.6998 11.1978 26.8624 10.6547 27.0181 10.0972C27.1748 9.53855 27.3154 8.96715 27.4659 8.35533L27.5864 8.33745Z" fill="#46844B"/>
<path d="M23.7268 23.7533C26.7526 20.6958 26.7526 15.7387 23.7268 12.6813C20.701 9.6238 15.7952 9.6238 12.7694 12.6813C9.74355 15.7387 9.74355 20.6958 12.7694 23.7533C15.7952 26.8108 20.701 26.8108 23.7268 23.7533Z" fill="#71C679"/>
<path d="M25.1203 21.833C19.0032 23.4779 15.0624 17.433 10.5042 18.3683C10.5842 22.6222 14.0196 26.0463 18.2486 26.0463C21.2365 26.0463 23.8276 24.3364 25.1203 21.833Z" fill="#5BA560"/>
<path d="M18.1667 26.0376C17.9754 25.3859 17.8493 24.7342 17.7403 24.0825C17.6328 23.4307 17.552 22.779 17.4918 22.1273C17.3656 20.8238 17.3263 19.5204 17.3369 18.2171C17.3479 16.9136 17.4079 15.6101 17.5313 14.3069C17.6644 13.0034 17.8341 11.6999 18.1668 10.3966H18.3307C18.6635 11.7001 18.8331 13.0036 18.9662 14.3069C19.0896 15.6103 19.1495 16.9138 19.1606 18.2171C19.1713 19.5205 19.1319 20.824 19.0057 22.1273C18.9456 22.779 18.8649 23.4307 18.7572 24.0825C18.6481 24.7342 18.522 25.3859 18.3309 26.0376H18.1667Z" fill="#46844B"/>
<path d="M14.9565 11.1491C14.6983 12.3546 14.5054 13.5327 14.3705 14.7053C14.2368 15.8775 14.1658 17.0431 14.1697 18.2091C14.1661 18.7921 14.1904 19.3751 14.2281 19.9586C14.2605 20.5431 14.325 21.1257 14.3907 21.7132C14.532 22.8878 14.7505 24.0613 14.9594 25.2915L14.8088 25.3571C14.0681 24.3443 13.5464 23.1844 13.1761 21.9749C12.8206 20.7612 12.6282 19.4889 12.6259 18.2152C12.6139 16.9416 12.7914 15.6671 13.1417 14.4498C13.319 13.8415 13.5393 13.2469 13.8113 12.6771C14.0894 12.11 14.3989 11.5597 14.8116 11.0714L14.9565 11.1491Z" fill="#46844B"/>
<path d="M21.6855 11.0712C22.0982 11.5595 22.4076 12.1099 22.6858 12.677C22.9577 13.2467 23.178 13.8413 23.3554 14.4496C23.7058 15.667 23.8832 16.9414 23.8712 18.2151C23.8691 19.4887 23.6765 20.761 23.3209 21.9747C22.9507 23.1843 22.4291 24.3441 21.6882 25.3569L21.5376 25.2913C21.7466 24.0611 21.9649 22.8876 22.1062 21.713C22.1719 21.1257 22.2365 20.5429 22.2688 19.9584C22.3065 19.3749 22.3308 18.7921 22.3272 18.2089C22.3313 17.043 22.2601 15.8773 22.1264 14.7052C21.9915 13.5326 21.7986 12.3546 21.5404 11.1489L21.6855 11.0712Z" fill="#46844B"/>
<path d="M23.7369 34H12.7603L11.645 25.5775H24.8522L23.7369 34Z" fill="#F39641"/>
<path d="M12.0409 28.5666C17.513 27.3756 22.2178 29.4576 24.1939 30.5492L24.8522 25.5777H11.645L12.0409 28.5666Z" fill="#CC7D3D"/>
<path d="M24.5773 27.3471H11.9199C11.6504 27.3471 11.4259 27.1384 11.4033 26.8669L11.1515 23.8319C11.1261 23.5265 11.3647 23.2643 11.6681 23.2643H24.8289C25.1323 23.2643 25.3708 23.5263 25.3456 23.8319L25.0938 26.8669C25.0713 27.1384 24.8468 27.3471 24.5773 27.3471Z" fill="#F39641"/>
<path d="M27.2533 8.32271C26.9033 8.67631 26.2325 8.57147 25.7547 8.08885C25.2769 7.60622 25.1733 6.92815 25.5232 6.57455C25.8732 6.22094 26.5441 6.32578 27.0219 6.80841C27.4995 7.2912 27.6031 7.9691 27.2533 8.32271Z" fill="#FF94E6"/>
<path d="M28.9834 10.0709C28.6334 10.4245 27.9625 10.3198 27.4847 9.837C27.0069 9.35421 26.9033 8.67631 27.2533 8.32271C27.6032 7.9691 28.2741 8.07377 28.7519 8.55657C29.2295 9.03936 29.3333 9.71742 28.9834 10.0709Z" fill="#FF94E6"/>
<path d="M29.5 8.71672C29.5 9.21674 28.9522 9.62202 28.2766 9.62202C27.6009 9.62202 27.0532 9.21674 27.0532 8.71672C27.0532 8.21671 27.6009 7.81143 28.2766 7.81143C28.9524 7.81126 29.5 8.21671 29.5 8.71672Z" fill="#D16BBE"/>
<path d="M26.8116 6C26.3167 6 25.9156 6.55351 25.9156 7.23621C25.9156 7.91892 26.3167 8.47243 26.8116 8.47243C27.3064 8.47243 27.7075 7.91892 27.7075 7.23621C27.7075 6.55351 27.3064 6 26.8116 6Z" fill="#D16BBE"/>
<path d="M28.7519 6.80841C28.402 6.4548 27.7311 6.55964 27.2533 7.04227C26.7755 7.52506 26.6719 8.20296 27.0219 8.55657C27.3718 8.91017 28.0427 8.80533 28.5205 8.32271C28.9981 7.83991 29.1017 7.16202 28.7519 6.80841Z" fill="#FF94E6"/>
</svg>
