<svg width="40" height="40" viewBox="0 0 40 40" fill="none" xmlns="http://www.w3.org/2000/svg">
<path d="M0 8C0 3.58172 3.58172 0 8 0H32C36.4183 0 40 3.58172 40 8V32C40 36.4183 36.4183 40 32 40H8C3.58172 40 0 36.4183 0 32V8Z" fill="#E2EDE9" fill-opacity="0.5"/>
<path d="M23.6985 7.57338C24.7366 8.61729 25.2576 9.98376 25.2626 11.3519L24.018 10.1004C23.6072 9.68733 22.9415 9.68733 22.5308 10.1004C22.12 10.5134 22.12 11.1828 22.5308 11.5959L24.6981 13.7753C24.4477 14.2782 24.1155 14.7502 23.6983 15.1697L23.3661 15.504L22.2076 14.3388C21.7968 13.9258 21.1311 13.9258 20.7204 14.3388C20.3096 14.7519 20.3096 15.4215 20.7204 15.8343L21.8789 16.9993L19.9212 18.9679L18.0066 17.0427L18.9819 16.062C19.3926 15.6489 19.3926 14.9795 18.9819 14.5665C18.5711 14.1534 17.9054 14.1534 17.4947 14.5665L16.5194 15.5472L16.1441 15.1697C15.7352 14.7585 15.4076 14.2967 15.159 13.8051L17.6744 11.2757C18.0852 10.8627 18.0852 10.1932 17.6744 9.78021C17.2637 9.36717 16.598 9.36717 16.1872 9.78021L14.5802 11.3962C14.5739 10.0132 15.0949 8.62841 16.1441 7.5732C18.2303 5.47557 21.6125 5.47557 23.6985 7.57338Z" fill="#38664B"/>
<path d="M15.9341 8.09153C14.7214 7.25953 13.2893 6.99832 11.9514 7.24729L13.4053 8.24466C13.8851 8.57391 14.0087 9.23184 13.6812 9.71421C13.3538 10.1966 12.6997 10.321 12.2198 9.99173L9.68787 8.25467C9.24301 8.59541 8.84332 9.01123 8.51074 9.50139L8.24582 9.89181L9.59937 10.8204C10.0791 11.1495 10.2028 11.8076 9.87535 12.2899C9.54793 12.7723 8.89365 12.8967 8.41395 12.5675L7.0604 11.6389L5.5 13.9386L7.73662 15.473L8.51387 14.3273C8.84129 13.8448 9.49558 13.7206 9.97527 14.0498C10.4552 14.3789 10.5787 15.037 10.2513 15.5194L9.47401 16.665L9.9126 16.9659C10.3903 17.2937 10.9022 17.5315 11.4289 17.6859L13.4336 14.7311C13.7611 14.2487 14.4153 14.1243 14.895 14.4536C15.3747 14.7826 15.4985 15.4407 15.171 15.9231L13.8903 17.8109C15.2427 17.5604 16.4995 16.7887 17.3358 15.5561C18.9988 13.1056 18.3711 9.76352 15.9341 8.09153Z" fill="#3C7052"/>
<path d="M24.0659 8.09153C25.2786 7.25953 26.7107 6.99832 28.0486 7.24729L26.5947 8.24466C26.1149 8.57391 25.9913 9.23184 26.3188 9.71421C26.646 10.1966 27.3003 10.321 27.7802 9.99173L30.3121 8.25467C30.757 8.59541 31.1567 9.01123 31.4893 9.50139L31.7542 9.89181L30.4006 10.8204C29.9209 11.1495 29.7972 11.8076 30.1246 12.2899C30.4521 12.7723 31.1064 12.8967 31.5861 12.5675L32.9396 11.6389L34.5 13.9386L32.2634 15.473L31.4861 14.3273C31.1587 13.8448 30.5044 13.7206 30.0247 14.0498C29.545 14.3789 29.4213 15.037 29.7487 15.5194L30.526 16.665L30.0874 16.9659C29.6097 17.2937 29.0978 17.5315 28.5711 17.6859L26.5664 14.7311C26.2389 14.2487 25.5847 14.1243 25.105 14.4536C24.6253 14.7826 24.5015 15.4407 24.829 15.9231L26.1097 17.8109C24.7573 17.5604 23.5005 16.7887 22.6642 15.5561C21.0012 13.1056 21.6289 9.76352 24.0659 8.09153Z" fill="#3C7052"/>
<path d="M11.9488 11.7353H11.883C10.415 11.7353 9.08557 12.3311 8.11991 13.2949H9.94578C10.4902 13.2949 10.9317 13.7387 10.9317 14.2864V14.4185C10.9317 14.966 10.4904 15.41 9.94578 15.41H6.81483C6.63822 15.9435 6.54125 16.5136 6.54125 17.1068V17.5793H8.199C8.60293 17.5793 8.98233 17.8111 9.13829 18.1859C9.45889 18.956 8.90508 19.6944 8.17963 19.6944H6.54106V22.4785H9.2489V21.0722C9.2489 20.666 9.47935 20.2845 9.85194 20.1276C10.6178 19.8053 11.3521 20.3622 11.3521 21.0916V22.4787H11.883C12.4613 22.4787 13.0175 22.3851 13.5393 22.2142V18.6179C13.5393 18.2117 13.7697 17.8302 14.1423 17.6733C14.9081 17.351 15.6424 17.9078 15.6424 18.6372V20.9224C16.6193 19.9489 17.2248 18.5993 17.2248 17.107V17.0408C17.225 14.1106 14.8628 11.7353 11.9488 11.7353Z" fill="#428761"/>
<path d="M12.3946 23.2519C11.812 24.42 11.4822 25.7376 11.4822 27.1332C11.4822 29.9291 12.7994 32.4142 14.8425 34H25.369C27.412 32.4142 28.7292 29.9291 28.7292 27.1332C28.7292 25.7374 28.3994 24.4199 27.8169 23.2519H12.3946Z" fill="#EFC08A"/>
<path d="M28.6669 26.0915C28.546 25.0813 28.2521 24.1249 27.8167 23.2519H12.3946C11.812 24.42 11.4822 25.7376 11.4822 27.1332C11.4822 27.265 11.4879 27.3953 11.4938 27.5258C18.0297 24.547 24.5956 25.1733 28.6669 26.0915Z" fill="#D8A66B"/>
<path d="M28.1229 24.2892H12.0886C11.7538 24.2892 11.4822 24.0163 11.4822 23.6794V23.0881C11.4822 22.7514 11.7536 22.4783 12.0886 22.4783H28.1229C28.4577 22.4783 28.7292 22.7512 28.7292 23.0881V23.6794C28.7292 24.0163 28.4577 24.2892 28.1229 24.2892Z" fill="#EFC08A"/>
<path d="M28.1784 11.7353C29.6464 11.7353 30.9758 12.3311 31.9415 13.2949H30.1814C29.6005 13.2949 29.1299 13.7684 29.1299 14.3524C29.1299 14.9363 29.6007 15.4098 30.1814 15.4098H33.2465C33.4232 15.9433 33.5201 16.5134 33.5201 17.1066V17.5792H31.8816C31.3008 17.5792 30.83 18.0526 30.83 18.6366C30.83 19.2206 31.3008 19.694 31.8816 19.694H33.5201V22.4781H30.8125V21.0911C30.8125 20.5071 30.3416 20.0337 29.7609 20.0337C29.1802 20.0337 28.7093 20.5071 28.7093 21.0911V22.4781H28.1784C27.6 22.4781 27.0438 22.3845 26.5223 22.2136V18.6366C26.5223 18.0526 26.0514 17.5792 25.4707 17.5792C24.89 17.5792 24.4191 18.0526 24.4191 18.6366V20.9218C23.4422 19.9484 22.8368 18.5988 22.8368 17.1064C22.8366 14.1401 25.2283 11.7353 28.1784 11.7353Z" fill="#428761"/>
<path d="M23.6985 18.3411C24.7366 19.385 25.2576 20.7515 25.2626 22.1196L24.018 20.8681C23.6072 20.455 22.9415 20.455 22.5308 20.8681C22.12 21.2811 22.12 21.9505 22.5308 22.3636L24.6981 24.5431C24.4477 25.0459 24.1155 25.5181 23.6983 25.9376L23.3661 26.2717L22.2076 25.1067C21.7968 24.6937 21.1311 24.6937 20.7204 25.1067C20.3096 25.5198 20.3096 26.1894 20.7204 26.6022L21.8789 27.7674L19.9212 29.736L18.0066 27.8107L18.9819 26.8301C19.3926 26.417 19.3926 25.7476 18.9819 25.3346C18.5711 24.9215 17.9054 24.9215 17.4947 25.3346L16.5194 26.3152L16.1441 25.9378C15.7352 25.5266 15.4076 25.0648 15.159 24.5732L17.6744 22.0438C18.0852 21.6307 18.0852 20.9611 17.6744 20.5483C17.2637 20.1352 16.598 20.1352 16.1872 20.5483L14.5802 22.1643C14.5739 20.7813 15.0949 19.3965 16.1441 18.3413C18.2303 16.2435 21.6125 16.2435 23.6985 18.3411Z" fill="#469E6C"/>
</svg>
