<svg width="58" height="58" viewBox="0 0 58 58" fill="none" xmlns="http://www.w3.org/2000/svg">
<path d="M0 5.4375C0 2.43445 2.43445 0 5.4375 0H52.5625C55.5655 0 58 2.43445 58 5.4375V52.5625C58 55.5655 55.5655 58 52.5625 58H5.4375C2.43445 58 0 55.5655 0 52.5625V5.4375Z" fill="#E2EDE9"/>
<path d="M14.5 19.9375C14.5 16.9345 16.9345 14.5 19.9375 14.5H38.0625C41.0655 14.5 43.5 16.9345 43.5 19.9375V38.0625C43.5 41.0655 41.0655 43.5 38.0625 43.5H19.9375C16.9345 43.5 14.5 41.0655 14.5 38.0625V19.9375Z" fill="#2A7F62"/>
<path d="M25.293 31.7353C25.7406 32.1362 25.8077 32.8011 25.0149 32.7537C24.2221 32.7063 20.7479 31.4391 20.174 30.9541C20.174 30.9541 20.5047 33.6409 21.7432 35.1531C22.9816 36.6652 23.3385 36.524 24.9041 36.8022C26.4695 37.0804 26.9102 38.4543 27.9036 37.7308C28.8971 37.0073 29.2685 33.8258 29.2685 33.8258C29.2685 33.8258 30.0917 38.8258 33.8813 38.0999C37.6709 37.374 35.5099 36.2168 37.0221 34.4312C38.5344 32.6456 38.0508 28.8426 38.0508 28.8426C38.0508 28.8426 34.1722 33.351 31.4244 32.5409C31.3741 32.4389 31.4043 32.3088 31.5467 32.1499C32.3196 31.2866 36.9935 28.9617 37.2296 27.733C37.4658 26.5042 35.0361 23.2342 35.0361 23.2342C35.0361 23.2342 34.417 26.8852 32.5394 28.6606C30.6618 30.4361 30.1129 30.4055 30.6704 29.4933C31.2279 28.581 34.1048 23.9847 33.5868 22.3111L31.3821 20.9131C31.3821 20.9131 31.7359 25.1184 29.4003 26.8582C27.6204 28.1841 28.9929 25.5407 29.5034 23.4544C29.5034 23.4544 30.2804 21.146 29.5602 20.5779L25.3609 19.7561L24.4457 22.147C24.4457 22.147 25.2731 25.3232 25.744 26.6952C26.2149 28.0673 25.4828 27.4695 25.2911 26.7506C25.0995 26.0317 23.2656 23.0936 23.35 22.4202C23.35 22.4202 22.2757 23.3306 22.2722 23.8171C22.2722 23.8171 24.1999 27.9051 25.4722 28.929C26.7445 29.9529 25.9213 31.0014 25.0393 30.1686C24.1574 29.3358 22.0359 25.593 21.9856 24.6839C21.9856 24.6839 20.815 26.6025 20.7607 27.8213C20.7066 29.0403 24.8453 31.3345 25.293 31.7353ZM33.5974 29.107C33.8256 28.2855 34.8481 26.4359 35.7401 26.6297C35.7401 26.6297 36.8695 27.2664 35.8254 28.1751C34.7815 29.0838 33.3693 29.9284 33.5974 29.107ZM34.6294 35.6877C33.2387 35.8252 31.9813 35.6212 31.8637 35.1413C31.746 34.6616 33.1415 34.4325 33.6517 34.4043C34.1619 34.3761 35.0086 34.299 35.3637 34.6746C35.3637 34.6746 36.02 35.5503 34.6294 35.6877ZM26.9621 33.8923C26.9621 33.8923 26.2867 34.8719 24.8439 35.1643C23.4012 35.4567 22.2297 35.1567 22.5395 34.714C22.8494 34.2713 25.0632 34.1795 25.5985 33.9676C26.1339 33.7556 27.4977 33.1333 26.9621 33.8923ZM22.0754 27.3617C22.4257 27.6991 22.6383 27.9703 22.4811 28.152C22.4811 28.152 22.122 28.8047 21.4508 28.2089C20.7797 27.613 21.7252 27.0243 22.0754 27.3617Z" fill="#66AF77"/>
<path d="M25.744 26.6952C26.2149 28.0673 25.4828 27.4695 25.2911 26.7506C25.0995 26.0317 23.2656 23.0936 23.35 22.4202C23.35 22.4202 22.2757 23.3306 22.2722 23.8171C22.2722 23.8171 24.1999 27.9051 25.4722 28.929C26.7445 29.9529 25.9213 31.0014 25.0393 30.1686C24.1574 29.3358 22.0359 25.593 21.9856 24.6839C21.9856 24.6839 20.815 26.6025 20.7607 27.8213C20.7066 29.0403 24.8453 31.3345 25.293 31.7353C25.7406 32.1362 25.8077 32.8011 25.0149 32.7537C24.2221 32.7063 20.7479 31.4391 20.174 30.9541C20.174 30.9541 20.5047 33.6409 21.7432 35.1531C22.9816 36.6652 23.3385 36.524 24.9041 36.8022C26.4695 37.0804 26.9102 38.4543 27.9036 37.7308C28.8971 37.0073 29.2685 33.8258 29.2685 33.8258C29.2685 33.8258 27.0433 22.7027 25.3609 19.7561L24.4457 22.147C24.4457 22.147 25.2731 25.3232 25.744 26.6952ZM22.4811 28.152C22.4811 28.152 22.122 28.8047 21.4508 28.2089C20.7797 27.613 21.7252 27.0243 22.0754 27.3617C22.4257 27.6991 22.6383 27.9703 22.4811 28.152ZM26.9621 33.8923C26.9621 33.8923 26.2867 34.8719 24.8439 35.1643C23.4012 35.4567 22.2297 35.1567 22.5395 34.714C22.8494 34.2713 25.0632 34.1795 25.5985 33.9676C26.1339 33.7556 27.4977 33.1333 26.9621 33.8923Z" fill="#76B385"/>
</svg>
